<mxfile host="app.diagrams.net" agent="Mozilla/5.0 (Windows NT 10.0; Win64; x64) AppleWebKit/537.36 (KHTML, like Gecko) Chrome/133.0.0.0 Safari/537.36" version="26.0.15">
  <diagram name="페이지-1" id="MXo_C9-GTxCt1rDPQJYe">
    <mxGraphModel dx="1834" dy="1230" grid="0" gridSize="10" guides="1" tooltips="1" connect="1" arrows="1" fold="1" page="0" pageScale="1" pageWidth="827" pageHeight="1169" math="0" shadow="0">
      <root>
        <mxCell id="0" />
        <mxCell id="1" parent="0" />
        <mxCell id="JejLwMXIjh2mGuwd4W3v-5" style="edgeStyle=none;curved=1;rounded=0;orthogonalLoop=1;jettySize=auto;html=1;fontSize=12;startSize=8;endSize=8;" edge="1" parent="1" source="JejLwMXIjh2mGuwd4W3v-1" target="JejLwMXIjh2mGuwd4W3v-2">
          <mxGeometry relative="1" as="geometry" />
        </mxCell>
        <mxCell id="JejLwMXIjh2mGuwd4W3v-1" value="올래사이트&lt;div&gt;공간정보업무포털 링크 클릭&lt;/div&gt;" style="rounded=0;whiteSpace=wrap;html=1;" vertex="1" parent="1">
          <mxGeometry x="-341" y="21" width="181" height="60" as="geometry" />
        </mxCell>
        <mxCell id="JejLwMXIjh2mGuwd4W3v-6" style="edgeStyle=none;curved=1;rounded=0;orthogonalLoop=1;jettySize=auto;html=1;fontSize=12;startSize=8;endSize=8;" edge="1" parent="1" source="JejLwMXIjh2mGuwd4W3v-2" target="JejLwMXIjh2mGuwd4W3v-3">
          <mxGeometry relative="1" as="geometry" />
        </mxCell>
        <mxCell id="JejLwMXIjh2mGuwd4W3v-2" value="공간정보업무포털&lt;div&gt;magicsso/connect.jsp 실행&lt;/div&gt;" style="rounded=0;whiteSpace=wrap;html=1;" vertex="1" parent="1">
          <mxGeometry x="-95" y="21" width="198" height="60" as="geometry" />
        </mxCell>
        <mxCell id="JejLwMXIjh2mGuwd4W3v-7" style="edgeStyle=none;curved=1;rounded=0;orthogonalLoop=1;jettySize=auto;html=1;fontSize=12;startSize=8;endSize=8;" edge="1" parent="1" source="JejLwMXIjh2mGuwd4W3v-3" target="JejLwMXIjh2mGuwd4W3v-4">
          <mxGeometry relative="1" as="geometry" />
        </mxCell>
        <mxCell id="JejLwMXIjh2mGuwd4W3v-3" value="사용자 pc에서&lt;div&gt;사용자 정보 획득&lt;/div&gt;" style="rounded=0;whiteSpace=wrap;html=1;" vertex="1" parent="1">
          <mxGeometry x="129" y="96" width="101" height="73" as="geometry" />
        </mxCell>
        <mxCell id="JejLwMXIjh2mGuwd4W3v-8" style="edgeStyle=none;curved=1;rounded=0;orthogonalLoop=1;jettySize=auto;html=1;fontSize=12;startSize=8;endSize=8;" edge="1" parent="1" source="JejLwMXIjh2mGuwd4W3v-4">
          <mxGeometry relative="1" as="geometry">
            <mxPoint x="5" y="303" as="targetPoint" />
          </mxGeometry>
        </mxCell>
        <mxCell id="JejLwMXIjh2mGuwd4W3v-4" value="공간정보업무포털&lt;div&gt;사용자 정보를 세션에 저장&lt;/div&gt;" style="rounded=0;whiteSpace=wrap;html=1;" vertex="1" parent="1">
          <mxGeometry x="-95" y="204" width="200" height="60" as="geometry" />
        </mxCell>
        <mxCell id="JejLwMXIjh2mGuwd4W3v-10" style="edgeStyle=none;curved=1;rounded=0;orthogonalLoop=1;jettySize=auto;html=1;fontSize=12;startSize=8;endSize=8;" edge="1" parent="1" source="JejLwMXIjh2mGuwd4W3v-9">
          <mxGeometry relative="1" as="geometry">
            <mxPoint x="7" y="407" as="targetPoint" />
          </mxGeometry>
        </mxCell>
        <mxCell id="JejLwMXIjh2mGuwd4W3v-9" value="공간정보업무포털&lt;div&gt;로그인 된 사용자 정보를&lt;/div&gt;&lt;div&gt;고유id와 함께 db에 저장&lt;/div&gt;" style="rounded=0;whiteSpace=wrap;html=1;" vertex="1" parent="1">
          <mxGeometry x="-93" y="308" width="200" height="60" as="geometry" />
        </mxCell>
        <mxCell id="JejLwMXIjh2mGuwd4W3v-13" style="edgeStyle=none;curved=1;rounded=0;orthogonalLoop=1;jettySize=auto;html=1;entryX=0.5;entryY=0;entryDx=0;entryDy=0;fontSize=12;startSize=8;endSize=8;" edge="1" parent="1" source="JejLwMXIjh2mGuwd4W3v-11" target="JejLwMXIjh2mGuwd4W3v-12">
          <mxGeometry relative="1" as="geometry" />
        </mxCell>
        <mxCell id="JejLwMXIjh2mGuwd4W3v-11" value="공간정보업무포털&lt;div&gt;edge창을 새로 엶&lt;/div&gt;&lt;div&gt;(고유id 와 함께)&lt;/div&gt;" style="rounded=0;whiteSpace=wrap;html=1;" vertex="1" parent="1">
          <mxGeometry x="-93" y="409" width="200" height="60" as="geometry" />
        </mxCell>
        <mxCell id="JejLwMXIjh2mGuwd4W3v-12" value="공간정보업무포털&lt;div&gt;edge 창에서 새로 로그인&lt;/div&gt;" style="rounded=0;whiteSpace=wrap;html=1;" vertex="1" parent="1">
          <mxGeometry x="-93" y="510" width="200" height="60" as="geometry" />
        </mxCell>
        <mxCell id="JejLwMXIjh2mGuwd4W3v-14" value="" style="rounded=0;whiteSpace=wrap;html=1;fillColor=none;" vertex="1" parent="1">
          <mxGeometry x="-396" y="-51" width="819" height="434" as="geometry" />
        </mxCell>
        <mxCell id="JejLwMXIjh2mGuwd4W3v-15" value="IE 모드" style="ellipse;whiteSpace=wrap;html=1;aspect=fixed;" vertex="1" parent="1">
          <mxGeometry x="388" y="106" width="80" height="80" as="geometry" />
        </mxCell>
      </root>
    </mxGraphModel>
  </diagram>
</mxfile>
